<svg version="1.1" xmlns="http://www.w3.org/2000/svg" viewBox="0 0 7551.339098378653 3362.436903608716" width="7551.339098378653" height="3362.436903608716">
  <!-- svg-source:excalidraw -->
  
  <defs>
    <style class="style-fonts">
      @font-face {
        font-family: "Virgil";
        src: url("https://excalidraw.com/Virgil.woff2");
      }
      @font-face {
        font-family: "Cascadia";
        src: url("https://excalidraw.com/Cascadia.woff2");
      }
    </style>
  </defs>
  <rect x="0" y="0" width="7551.339098378653" height="3362.436903608716" fill="#ffffff"></rect><g stroke-linecap="round" transform="translate(2059.9722222222217 648.6749988468114) rotate(0 590.5 420)"><path d="M32 0 M32 0 C450.69 -2.95, 869.06 -2.94, 1149 0 M32 0 C290.19 -0.15, 547.52 0.09, 1149 0 M1149 0 C1170.6 -0.66, 1179.17 9.21, 1181 32 M1149 0 C1170.84 -0.3, 1182.05 10.61, 1181 32 M1181 32 C1181.41 280.28, 1182.16 530.16, 1181 808 M1181 32 C1182.38 290.62, 1182.4 549.19, 1181 808 M1181 808 C1179.52 830.46, 1172.3 840.68, 1149 840 M1181 808 C1180.71 831.36, 1169.86 842.23, 1149 840 M1149 840 C881.02 844.64, 612.41 843.93, 32 840 M1149 840 C721.77 839.36, 295.66 839.57, 32 840 M32 840 C10.23 840.07, -1.57 828.55, 0 808 M32 840 C12.55 841.76, 1.19 831.56, 0 808 M0 808 C2.29 629.51, 2.09 451.7, 0 32 M0 808 C0.85 536.13, 0.9 263.35, 0 32 M0 32 C0.09 12.06, 9.86 1.16, 32 0 M0 32 C-1.42 9.25, 9.46 1.5, 32 0" stroke="#000000" stroke-width="1" fill="none"></path></g><g stroke-linecap="round" transform="translate(2166.9722222222217 993.6749988468114) rotate(0 131 133.5)"><path d="M32 0 M32 0 C102.3 1.09, 172.7 1.27, 230 0 M32 0 C80.26 -1.65, 127.73 -2.54, 230 0 M230 0 C252.98 1.14, 261.89 8.68, 262 32 M230 0 C249.1 1.88, 260.99 10.16, 262 32 M262 32 C262.04 95, 261.5 156.99, 262 235 M262 32 C260.92 78.08, 260.7 124.91, 262 235 M262 235 C263.02 255.54, 251.52 265.08, 230 267 M262 235 C263.88 254.4, 249.91 267.1, 230 267 M230 267 C155.57 266.92, 82.55 269.46, 32 267 M230 267 C164.66 265.41, 100.4 265.04, 32 267 M32 267 C10.83 268.09, 1.61 257.32, 0 235 M32 267 C8.85 267.54, -0.92 256.94, 0 235 M0 235 C-1.29 158.14, -1.33 84.48, 0 32 M0 235 C-0.49 173.69, -1.02 112.37, 0 32 M0 32 C1.84 12.63, 10.24 -1.99, 32 0 M0 32 C-0.69 10.18, 10.65 -1.61, 32 0" stroke="#000000" stroke-width="1" fill="none"></path></g><g stroke-linecap="round" transform="translate(2532.9722222222217 990.1749988468114) rotate(0 131 133.5)"><path d="M32 0 M32 0 C110.94 -0.36, 187.14 0.01, 230 0 M32 0 C75.47 2.77, 118.48 1.35, 230 0 M230 0 C251.04 -0.58, 260.79 9.35, 262 32 M230 0 C250.78 1.39, 260.68 12.65, 262 32 M262 32 C263.28 98.87, 262.61 166.27, 262 235 M262 32 C261.17 85.39, 261.94 139.21, 262 235 M262 235 C261.72 258.24, 250.95 268.57, 230 267 M262 235 C263.42 254.23, 250.64 264.78, 230 267 M230 267 C166.27 268.19, 106.62 267.54, 32 267 M230 267 C174.17 267.53, 119.14 267.33, 32 267 M32 267 C11.77 268.78, 1.65 255.54, 0 235 M32 267 C12.25 268.21, 1.29 256.44, 0 235 M0 235 C-1.05 175.68, -0.75 118.36, 0 32 M0 235 C0.03 164.47, -0.01 93.69, 0 32 M0 32 C0.31 11.21, 11.38 1.46, 32 0 M0 32 C-0.95 11.81, 11.56 -0.96, 32 0" stroke="#000000" stroke-width="1" fill="none"></path></g><g stroke-linecap="round" transform="translate(2911.9722222222217 991.1749988468114) rotate(0 131 133.5)"><path d="M32 0 M32 0 C102.27 -2.34, 172.01 -2.03, 230 0 M32 0 C110.23 -0.46, 186.14 -0.84, 230 0 M230 0 C250.75 -1.21, 260.68 10.19, 262 32 M230 0 C252.73 -1.32, 263.99 11.31, 262 32 M262 32 C263.16 98.55, 264.02 164.2, 262 235 M262 32 C260.33 90.24, 260.89 147.94, 262 235 M262 235 C263.91 255.95, 252.9 268.24, 230 267 M262 235 C259.9 255.64, 249.11 267.33, 230 267 M230 267 C154.71 266.58, 78.73 265.14, 32 267 M230 267 C173.05 267.35, 115.11 267.33, 32 267 M32 267 C12.45 268.65, -0.8 257.71, 0 235 M32 267 C11.88 268.29, 0.1 255.99, 0 235 M0 235 C-1.03 159.14, -0.48 82.89, 0 32 M0 235 C-0.76 166.27, -0.47 96.15, 0 32 M0 32 C0.54 11.38, 12.12 -0.83, 32 0 M0 32 C1.15 11.56, 9.7 1.27, 32 0" stroke="#000000" stroke-width="1" fill="none"></path></g><g stroke-linecap="round" transform="translate(2528.9722222222217 700.6749988468114) rotate(0 134.5 74)"><path d="M168.75 18.75 M168.75 18.75 C189.18 32.17, 209.28 44.37, 235.25 56.25 M168.75 18.75 C188.9 31.34, 209.08 41.39, 235.25 56.25 M235.25 56.25 C267.78 75.56, 268.97 73.79, 235.25 93.75 M235.25 56.25 C268.59 72.94, 268.29 75.08, 235.25 93.75 M235.25 93.75 C219.2 103.63, 200.27 114.12, 168.75 129.25 M235.25 93.75 C217.59 104.21, 202.2 112, 168.75 129.25 M168.75 129.25 C136.87 148.33, 136.66 148.97, 101.25 129.25 M168.75 129.25 C134.6 149.71, 134.97 149.85, 101.25 129.25 M101.25 129.25 C84.35 118.43, 63.97 111.78, 33.75 93.75 M101.25 129.25 C78.76 116.46, 56.04 104.99, 33.75 93.75 M33.75 93.75 C-0.88 76.48, 0.81 74.41, 33.75 56.25 M33.75 93.75 C0.61 75.15, 2.02 72.77, 33.75 56.25 M33.75 56.25 C58.36 40.85, 83.57 28.51, 101.25 18.75 M33.75 56.25 C59.87 42.44, 83.77 28.38, 101.25 18.75 M101.25 18.75 C133.44 -0.04, 136.12 1.04, 168.75 18.75 M101.25 18.75 C135.79 0.18, 133.61 0.65, 168.75 18.75" stroke="#000000" stroke-width="1" fill="none"></path></g><g transform="translate(2560.9722222222217 762.1749988468114) rotate(0 102.5 12.5)"><text x="102.5" y="18" font-family="Virgil, Segoe UI Emoji" font-size="20px" fill="#000000" text-anchor="middle" style="white-space: pre;" direction="ltr">&lt;Outlet key="foo" /&gt;</text></g><g transform="translate(2576.9722222222217 1013.6749988468114) rotate(0 49.5 12.5)"><text x="0" y="18" font-family="Virgil, Segoe UI Emoji" font-size="20px" fill="#000000" text-anchor="start" style="white-space: pre;" direction="ltr">Component</text></g><g transform="translate(2960.9722222222217 1016.6749988468114) rotate(0 49.5 12.5)"><text x="0" y="18" font-family="Virgil, Segoe UI Emoji" font-size="20px" fill="#000000" text-anchor="start" style="white-space: pre;" direction="ltr">Component</text></g><g transform="translate(2219.9722222222217 1014.6749988468114) rotate(0 49.5 12.5)"><text x="0" y="18" font-family="Virgil, Segoe UI Emoji" font-size="20px" fill="#000000" text-anchor="start" style="white-space: pre;" direction="ltr">Component</text></g><g transform="translate(2182.9722222222217 1113.6749988468114) rotate(0 112.5 12.5)"><text x="0" y="18" font-family="Virgil, Segoe UI Emoji" font-size="20px" fill="#000000" text-anchor="start" style="white-space: pre;" direction="ltr">useInlet("foo", &lt;div /&gt;)</text></g><g transform="translate(2548.4722222222217 1099.1749988468114) rotate(0 112.5 12.5)"><text x="0" y="18" font-family="Virgil, Segoe UI Emoji" font-size="20px" fill="#000000" text-anchor="start" style="white-space: pre;" direction="ltr">useInlet("foo", &lt;div /&gt;)</text></g><g transform="translate(2925.4722222222217 1102.1749988468114) rotate(0 112.5 12.5)"><text x="0" y="18" font-family="Virgil, Segoe UI Emoji" font-size="20px" fill="#000000" text-anchor="start" style="white-space: pre;" direction="ltr">useInlet("foo", &lt;div /&gt;)</text></g><g transform="translate(2270.9722222222217 434.67499884681143) rotate(0 368.5 85)"><text x="0" y="119" font-family="Virgil, Segoe UI Emoji" font-size="134.5454545454544px" fill="#000000" text-anchor="start" style="white-space: pre;" direction="ltr">Workspace </text></g><g transform="translate(2937.8214285714284 598.635316307129) rotate(0 145.5 12.5)"><text x="0" y="18" font-family="Virgil, Segoe UI Emoji" font-size="20px" fill="#000000" text-anchor="start" style="white-space: pre;" direction="ltr">Wrapped in ComponentProvider</text></g><g stroke-linecap="round"><g transform="translate(2046.0646125175015 694.6636474699055) rotate(0 -156.79302915986773 -19.03459232110822)"><path d="M0.98 0.89 C-51.11 -5.59, -260.95 -32.37, -313.52 -38.96 M0.03 0.31 C-52.15 -6.04, -262.54 -31.62, -314.56 -37.96" stroke="#000000" stroke-width="1" fill="none"></path></g><g transform="translate(2046.0646125175015 694.6636474699055) rotate(0 -156.79302915986773 -19.03459232110822)"><path d="M-283.86 -45.05 C-293.46 -44.84, -299.35 -41.01, -316.38 -36.32 M-284.52 -44.03 C-293.81 -43, -302.4 -41.46, -315.54 -38.07" stroke="#000000" stroke-width="1" fill="none"></path></g><g transform="translate(2046.0646125175015 694.6636474699055) rotate(0 -156.79302915986773 -19.03459232110822)"><path d="M-286.34 -24.68 C-295.38 -28.95, -300.73 -29.59, -316.38 -36.32 M-287 -23.65 C-295.57 -28.24, -303.48 -32.28, -315.54 -38.07" stroke="#000000" stroke-width="1" fill="none"></path></g></g><mask></mask><g transform="translate(1379.0714285714282 552.8019829737956) rotate(0 83.00000000000003 12.5)"><text x="0" y="18" font-family="Virgil, Segoe UI Emoji" font-size="20px" fill="#000000" text-anchor="start" style="white-space: pre;" direction="ltr">Support currying?</text></g><g transform="translate(1376.849206349206 582.8019829737956) rotate(0 159.50000000000003 12.5)"><text x="0" y="18" font-family="Virgil, Segoe UI Emoji" font-size="20px" fill="#000000" text-anchor="start" style="white-space: pre;" direction="ltr">Referential equality | Dep array</text></g><g transform="translate(1380.1825396825393 616.135316307129) rotate(0 63 12.5)"><text x="0" y="18" font-family="Virgil, Segoe UI Emoji" font-size="20px" fill="#000000" text-anchor="start" style="white-space: pre;" direction="ltr">Key factory?</text></g><g transform="translate(1376.8492063492058 649.4686496404622) rotate(0 161.5 12.5)"><text x="0" y="18" font-family="Virgil, Segoe UI Emoji" font-size="20px" fill="#000000" text-anchor="start" style="white-space: pre;" direction="ltr">Instantiate at Inlet or Outlet?</text></g><g stroke-linecap="round" transform="translate(1364.6269841269836 546.24642741824) rotate(0 180.30839584938556 135.9595467347629)"><path d="M32 0 M32 0 C127.95 1.91, 224.14 0.13, 328.62 0 M32 0 C119.9 0.74, 208.8 1.51, 328.62 0 M328.62 0 C351.82 -0.79, 359.86 10.02, 360.62 32 M328.62 0 C352 1.73, 362.86 11.67, 360.62 32 M360.62 32 C360.29 83.06, 359.23 135.71, 360.62 239.92 M360.62 32 C358.56 96.06, 359.3 160.24, 360.62 239.92 M360.62 239.92 C362.61 261.56, 349.31 270.34, 328.62 271.92 M360.62 239.92 C361.15 263.24, 349.52 273.13, 328.62 271.92 M328.62 271.92 C261.84 273.56, 194.08 274.61, 32 271.92 M328.62 271.92 C215.44 272.56, 101.22 271.88, 32 271.92 M32 271.92 C10.56 270.56, 0.58 261.86, 0 239.92 M32 271.92 C11.77 272.76, 1.59 261.57, 0 239.92 M0 239.92 C-2.4 175.82, -0.15 112.27, 0 32 M0 239.92 C0.03 181.79, 1.23 123.42, 0 32 M0 32 C-1.5 11.89, 11.88 1.26, 32 0 M0 32 C1.15 9.7, 8.88 -0.68, 32 0" stroke="#000000" stroke-width="1" fill="none"></path></g><g transform="translate(1374.6269841269836 678.3575385293511) rotate(0 162.49999999999997 37.5)"><text x="0" y="18" font-family="Virgil, Segoe UI Emoji" font-size="20px" fill="#000000" text-anchor="start" style="white-space: pre;" direction="ltr">Support for suspense/fallback</text><text x="0" y="43" font-family="Virgil, Segoe UI Emoji" font-size="20px" fill="#000000" text-anchor="start" style="white-space: pre;" direction="ltr">Children?</text><text x="0" y="68" font-family="Virgil, Segoe UI Emoji" font-size="20px" fill="#000000" text-anchor="start" style="white-space: pre;" direction="ltr">Always one inlet, throw or eject?</text></g><g stroke-linecap="round"><g transform="translate(1363.5567299279048 651.7209663668154) rotate(0 -147.61637808793847 -39.60333081185235)"><path d="M-1.16 -0.87 C-50.25 -14.43, -245.73 -67.28, -294.71 -80.5 M0.44 1.29 C-48.81 -12.19, -246.26 -65.88, -295.67 -79.26" stroke="#000000" stroke-width="1" fill="none"></path></g><g transform="translate(1363.5567299279048 651.7209663668154) rotate(0 -147.61637808793847 -39.60333081185235)"><path d="M-267.22 -81.8 C-275.34 -81.91, -283.41 -78.94, -295.97 -78.65 M-265.12 -81.5 C-275.63 -81.35, -286.61 -80.28, -296.14 -78.79" stroke="#000000" stroke-width="1" fill="none"></path></g><g transform="translate(1363.5567299279048 651.7209663668154) rotate(0 -147.61637808793847 -39.60333081185235)"><path d="M-272.6 -61.99 C-279.3 -67.77, -285.82 -70.52, -295.97 -78.65 M-270.49 -61.7 C-278.88 -68.64, -287.91 -74.73, -296.14 -78.79" stroke="#000000" stroke-width="1" fill="none"></path></g></g><mask></mask><g stroke-linecap="round" transform="translate(329.07142857142844 1908.1511893230017) rotate(0 1074.2857142857142 722.1428571428571)"><path d="M32 0 M32 0 C832.08 1.1, 1632.52 0.67, 2116.57 0 M32 0 C788.95 2.44, 1546.75 2.37, 2116.57 0 M2116.57 0 C2137.29 1.03, 2150.22 11.18, 2148.57 32 M2116.57 0 C2138.02 -1.51, 2150.52 9.05, 2148.57 32 M2148.57 32 C2145.66 442.68, 2145.24 853.19, 2148.57 1412.29 M2148.57 32 C2143.96 367.43, 2144.06 703.02, 2148.57 1412.29 M2148.57 1412.29 C2148.68 1433.84, 2135.94 1445.29, 2116.57 1444.29 M2148.57 1412.29 C2147.7 1433.04, 2139.39 1442.19, 2116.57 1444.29 M2116.57 1444.29 C1410.26 1446.43, 705.22 1446.08, 32 1444.29 M2116.57 1444.29 C1686.22 1445.54, 1255.48 1445.5, 32 1444.29 M32 1444.29 C9.19 1442.5, 1.95 1434.15, 0 1412.29 M32 1444.29 C8.99 1444.45, -0.82 1434.93, 0 1412.29 M0 1412.29 C5.08 955.31, 5.23 498.36, 0 32 M0 1412.29 C-3.61 990.6, -3.37 568.47, 0 32 M0 32 C0.27 11.83, 9.06 1.69, 32 0 M0 32 C-0.81 12.63, 10.88 -1.02, 32 0" stroke="#000000" stroke-width="1" fill="none"></path></g><g transform="translate(1021.9285714285713 1809.1511893230017) rotate(0 50 12.5)"><text x="0" y="18" font-family="Virgil, Segoe UI Emoji" font-size="20px" fill="#000000" text-anchor="start" style="white-space: pre;" direction="ltr">Workspace</text></g><g stroke-linecap="round" transform="translate(640.4999999999998 2306.72261789443) rotate(0 509.2857142857142 475)"><path d="M32 0 M32 0 C345.84 0.72, 659.54 1.25, 986.57 0 M32 0 C336.62 3, 641.18 3.03, 986.57 0 M986.57 0 C1009.85 0.53, 1017.11 10.81, 1018.57 32 M986.57 0 C1007.08 1.31, 1019.29 8.62, 1018.57 32 M1018.57 32 C1019.67 375.7, 1019.39 719.88, 1018.57 918 M1018.57 32 C1016.99 317.63, 1016.99 603.57, 1018.57 918 M1018.57 918 C1016.97 941.02, 1007.2 951.71, 986.57 950 M1018.57 918 C1018.79 938.32, 1008.12 951.11, 986.57 950 M986.57 950 C718.95 953.29, 450.73 953.07, 32 950 M986.57 950 C763.32 951.96, 539.73 951.54, 32 950 M32 950 C9.74 949.98, -0.21 940.23, 0 918 M32 950 C12.75 950.06, -0.29 940.57, 0 918 M0 918 C-1.78 571.54, -1.3 223.73, 0 32 M0 918 C0.27 642.93, 0.63 368.19, 0 32 M0 32 C1.77 10.07, 11.39 -0.45, 32 0 M0 32 C-1.48 10.37, 11.41 -1.91, 32 0" stroke="#000000" stroke-width="1" fill="none"></path></g><g transform="translate(774.7857142857142 2247.72261789443) rotate(0 20.5 12.5)"><text x="0" y="18" font-family="Virgil, Segoe UI Emoji" font-size="20px" fill="#000000" text-anchor="start" style="white-space: pre;" direction="ltr">Tab</text></g><g stroke-linecap="round" transform="translate(411.92857142857133 1976.7226178944304) rotate(0 994.2857142857142 82.14285714285711)"><path d="M32 0 M32 0 C743.79 3.49, 1455.95 4.3, 1956.57 0 M32 0 C614.86 -3.94, 1197.24 -4.13, 1956.57 0 M1956.57 0 C1979.49 1.32, 1988.35 10.88, 1988.57 32 M1956.57 0 C1977.72 0.57, 1988.49 10.42, 1988.57 32 M1988.57 32 C1988.61 71.48, 1988.76 108.23, 1988.57 132.29 M1988.57 32 C1988.64 60.65, 1989.72 90.53, 1988.57 132.29 M1988.57 132.29 C1986.75 151.88, 1976.13 165.72, 1956.57 164.29 M1988.57 132.29 C1988.81 154.34, 1979.32 166.1, 1956.57 164.29 M1956.57 164.29 C1347.12 164.02, 736.21 163.6, 32 164.29 M1956.57 164.29 C1437.24 167.16, 917.58 166.62, 32 164.29 M32 164.29 C9.18 162.76, 0.32 155.23, 0 132.29 M32 164.29 C11.11 166.05, -0.54 153.91, 0 132.29 M0 132.29 C-0.93 98.82, -0.34 61.17, 0 32 M0 132.29 C0.55 96.44, -0.17 59.27, 0 32 M0 32 C0.17 8.68, 11.5 0.43, 32 0 M0 32 C-0.89 9.01, 9.19 1.05, 32 0" stroke="#000000" stroke-width="1" fill="none"></path></g><g transform="translate(1130.4999999999998 1930.5797607515733) rotate(0 62.5 12.5)"><text x="0" y="18" font-family="Virgil, Segoe UI Emoji" font-size="20px" fill="#000000" text-anchor="start" style="white-space: pre;" direction="ltr">Key="Header"</text></g><g stroke-linecap="round" transform="translate(464.7857142857142 2043.8654750372875) rotate(0 359.9999999999999 32.85714285714289)"><path d="M16.43 0 M16.43 0 C186.15 1.07, 355.39 1.35, 703.57 0 M16.43 0 C278.53 0.28, 541.05 0.46, 703.57 0 M703.57 0 C716.32 -0.37, 719.11 4.62, 720 16.43 M703.57 0 C712.62 0.73, 719.76 6.69, 720 16.43 M720 16.43 C720.26 25.22, 719.88 37.15, 720 49.29 M720 16.43 C719.26 29.43, 719.77 40.43, 720 49.29 M720 49.29 C721.86 62.11, 713.04 66.72, 703.57 65.71 M720 49.29 C721.5 59.99, 716.38 63.52, 703.57 65.71 M703.57 65.71 C520.4 63.01, 336.83 63.16, 16.43 65.71 M703.57 65.71 C430.64 67.77, 157.48 67.91, 16.43 65.71 M16.43 65.71 C5.12 64.93, 1.19 60, 0 49.29 M16.43 65.71 C7.04 66.48, 1.69 59.01, 0 49.29 M0 49.29 C0.82 37.27, 0.97 24.3, 0 16.43 M0 49.29 C0.24 38.49, -0.62 27.16, 0 16.43 M0 16.43 C0.05 5.81, 5.36 -0.01, 16.43 0 M0 16.43 C0.06 7.62, 6.19 0.29, 16.43 0" stroke="#000000" stroke-width="1" fill="none"></path></g><g transform="translate(536.2142857142858 2067.7226178944306) rotate(0 89.5 12.5)"><text x="0" y="18" font-family="Virgil, Segoe UI Emoji" font-size="20px" fill="#000000" text-anchor="start" style="white-space: pre;" direction="ltr">Key="Left-section"</text></g><g stroke-linecap="round" transform="translate(1791.9285714285713 2029.5797607515733) rotate(0 282.85714285714266 37.85714285714289)"><path d="M18.93 0 M18.93 0 C186.12 0.75, 353.52 0.1, 546.79 0 M18.93 0 C203.96 1.03, 389.23 0.27, 546.79 0 M546.79 0 C558.98 -1.88, 567.09 6.36, 565.71 18.93 M546.79 0 C559.58 -0.8, 567.47 6.12, 565.71 18.93 M565.71 18.93 C567.02 31.56, 564.73 45.48, 565.71 56.79 M565.71 18.93 C566.4 30.63, 566.47 42.75, 565.71 56.79 M565.71 56.79 C566.98 67.97, 559.94 74.94, 546.79 75.71 M565.71 56.79 C563.43 69.09, 560.23 76.94, 546.79 75.71 M546.79 75.71 C395.26 75.62, 242.34 75.9, 18.93 75.71 M546.79 75.71 C374.7 76.6, 203.53 76.84, 18.93 75.71 M18.93 75.71 C4.37 76.66, 1.12 69.32, 0 56.79 M18.93 75.71 C4.18 76.66, -0.25 67.75, 0 56.79 M0 56.79 C-0.94 43.37, -1.18 28.03, 0 18.93 M0 56.79 C-0.64 40.86, 0.26 27.03, 0 18.93 M0 18.93 C0.83 6.89, 6.7 -0.3, 18.93 0 M0 18.93 C-1.93 7.95, 7.52 1.49, 18.93 0" stroke="#000000" stroke-width="1" fill="none"></path></g><g transform="translate(1879.0714285714282 2052.008332180145) rotate(0 74 12.5)"><text x="0" y="18" font-family="Virgil, Segoe UI Emoji" font-size="20px" fill="#000000" text-anchor="start" style="white-space: pre;" direction="ltr">Key="Tab_nav"</text></g><g stroke-linecap="round" transform="translate(2060.499999999999 2035.2940464658589) rotate(0 91.5 30)"><path d="M15 0 M15 0 C67.27 -0.42, 117.61 2.52, 168 0 M15 0 C63.66 1.18, 114.41 1.25, 168 0 M168 0 C178.58 0.39, 182.7 3.32, 183 15 M168 0 C179.64 1.21, 184.49 2.94, 183 15 M183 15 C181.52 20.53, 181.06 26.55, 183 45 M183 15 C182.14 21.23, 182.81 27, 183 45 M183 45 C184.48 53.55, 177.2 61.92, 168 60 M183 45 C182.6 56.32, 177.86 60.48, 168 60 M168 60 C116.48 59.16, 67.63 59.47, 15 60 M168 60 C126.01 60.25, 84.01 59.58, 15 60 M15 60 C4.75 58.26, -0.57 54.49, 0 45 M15 60 C5.45 58.35, -0.05 55.45, 0 45 M0 45 C-0.59 34.5, -0.5 23.91, 0 15 M0 45 C-0.35 33.16, -0.49 22.32, 0 15 M0 15 C1.06 3.25, 6.29 0.3, 15 0 M0 15 C0.78 4.07, 6.93 0.84, 15 0" stroke="#000000" stroke-width="1" fill="none"></path></g><g transform="translate(2092.999999999999 2052.794046465859) rotate(0 59 12.5)"><text x="59" y="18" font-family="Virgil, Segoe UI Emoji" font-size="20px" fill="#000000" text-anchor="middle" style="white-space: pre;" direction="ltr">key="tab04"</text></g><g stroke-linecap="round"><g transform="translate(129.07142857142844 1789.5797607515733) rotate(0 210.32620569362305 125.70360830686843)"><path d="M0.83 -0.41 C70.91 41.85, 351.03 211.01, 420.85 253.09 M-0.2 -1.68 C69.77 40.24, 350.5 208.64, 420.35 251.08" stroke="#000000" stroke-width="1" fill="none"></path></g><g transform="translate(129.07142857142844 1789.5797607515733) rotate(0 210.32620569362305 125.70360830686843)"><path d="M390.22 246.73 C400.96 246.64, 408.95 247.07, 419.69 250.74 M390.24 245.14 C399.78 247.92, 408.89 249.04, 419.62 251.95" stroke="#000000" stroke-width="1" fill="none"></path></g><g transform="translate(129.07142857142844 1789.5797607515733) rotate(0 210.32620569362305 125.70360830686843)"><path d="M400.82 229.16 C408 234.93, 412.5 241.14, 419.69 250.74 M400.84 227.57 C407.03 235.75, 412.92 242.21, 419.62 251.95" stroke="#000000" stroke-width="1" fill="none"></path></g></g><mask></mask><g stroke-linecap="round"><g transform="translate(131.92857142857133 1792.4369036087162) rotate(0 885.6874082578612 124.70331957631333)"><path d="M-0.92 0.06 C294.64 41.53, 1476.61 207.19, 1772.29 248.74 M0.8 -0.95 C296.24 40.74, 1475.75 208.96, 1771.05 250.36" stroke="#000000" stroke-width="1" fill="none"></path></g><g transform="translate(131.92857142857133 1792.4369036087162) rotate(0 885.6874082578612 124.70331957631333)"><path d="M1741.8 255.63 C1748.28 255.97, 1755.62 255.86, 1771.1 252.14 M1741.33 256.66 C1747.88 255.92, 1754.44 253.83, 1771.41 249.61" stroke="#000000" stroke-width="1" fill="none"></path></g><g transform="translate(131.92857142857133 1792.4369036087162) rotate(0 885.6874082578612 124.70331957631333)"><path d="M1744.67 235.31 C1750.53 240, 1757.25 244.26, 1771.1 252.14 M1744.21 236.34 C1750.03 240.33, 1755.93 242.97, 1771.41 249.61" stroke="#000000" stroke-width="1" fill="none"></path></g></g><mask></mask><g stroke-linecap="round"><g transform="translate(136.21428571428567 1792.4369036087162) rotate(0 969.0436295168859 126.04040960483121)"><path d="M-0.3 -0.53 C322.46 41.47, 1613.45 209.44, 1936.18 251.69 M1.75 1.81 C324.9 43.94, 1615.6 210.52, 1938.38 252.61" stroke="#000000" stroke-width="1" fill="none"></path></g><g transform="translate(136.21428571428567 1792.4369036087162) rotate(0 969.0436295168859 126.04040960483121)"><path d="M1908.23 257.55 C1915.13 255.71, 1925.22 256.42, 1936.41 252.86 M1909.93 259.22 C1918.56 258.23, 1928.45 254.46, 1938.57 253.57" stroke="#000000" stroke-width="1" fill="none"></path></g><g transform="translate(136.21428571428567 1792.4369036087162) rotate(0 969.0436295168859 126.04040960483121)"><path d="M1910.87 237.2 C1917 240.89, 1926.38 247.13, 1936.41 252.86 M1912.57 238.87 C1920.27 244.41, 1929.32 247.2, 1938.57 253.57" stroke="#000000" stroke-width="1" fill="none"></path></g></g><mask></mask><g transform="translate(10 1631.8297607515735) rotate(0 453 70)"><text x="0" y="25" font-family="Virgil, Segoe UI Emoji" font-size="28.000000000000004px" fill="#000000" text-anchor="start" style="white-space: pre;" direction="ltr">Workspace global const keystore</text><text x="0" y="60" font-family="Virgil, Segoe UI Emoji" font-size="28.000000000000004px" fill="#000000" text-anchor="start" style="white-space: pre;" direction="ltr">import { components } from '@equinor/workspace"</text><text x="0" y="95" font-family="Virgil, Segoe UI Emoji" font-size="28.000000000000004px" fill="#000000" text-anchor="start" style="white-space: pre;" direction="ltr">Wrap everything in a neat API</text><text x="0" y="130" font-family="Virgil, Segoe UI Emoji" font-size="28.000000000000004px" fill="#000000" text-anchor="start" style="white-space: pre;" direction="ltr">Can pick and mix N amount of components and nested components</text></g><g stroke-linecap="round" transform="translate(489.0735930735939 452.9314923533049) rotate(0 287.27272727272725 167.27272727272728)"><path d="M32 0 M32 0 C222.98 1.45, 413.28 0.46, 542.55 0 M32 0 C155.71 0.06, 279.71 -0.06, 542.55 0 M542.55 0 C563.4 1.45, 574.97 10.05, 574.55 32 M542.55 0 C563.97 2.26, 572.94 8.55, 574.55 32 M574.55 32 C574.05 134.35, 575.22 236.49, 574.55 302.55 M574.55 32 C576.6 134.74, 575.62 237.93, 574.55 302.55 M574.55 302.55 C573.09 324.62, 565.39 336.38, 542.55 334.55 M574.55 302.55 C575.94 323.19, 563.87 334.77, 542.55 334.55 M542.55 334.55 C437.16 335.77, 333.08 335.03, 32 334.55 M542.55 334.55 C339.9 333.2, 136.79 333.51, 32 334.55 M32 334.55 C9.24 333.74, 0.57 322.98, 0 302.55 M32 334.55 C10.61 332.25, 0.12 322.31, 0 302.55 M0 302.55 C-1.2 209.53, -1.04 120.83, 0 32 M0 302.55 C-0.6 195.16, 0.17 86.13, 0 32 M0 32 C0.8 12.27, 11.45 -0.18, 32 0 M0 32 C-1.85 10.99, 9.37 2.18, 32 0" stroke="#000000" stroke-width="1" fill="none"></path></g><g transform="translate(504.5281385281394 464.84058326239585) rotate(0 264 100)"><text x="0" y="18" font-family="Virgil, Segoe UI Emoji" font-size="20px" fill="#000000" text-anchor="start" style="white-space: pre;" direction="ltr">Instantiate at Inlet:</text><text x="0" y="43" font-family="Virgil, Segoe UI Emoji" font-size="20px" fill="#000000" text-anchor="start" style="white-space: pre;" direction="ltr">Use context from inlet.</text><text x="0" y="68" font-family="Virgil, Segoe UI Emoji" font-size="20px" fill="#000000" text-anchor="start" style="white-space: pre;" direction="ltr">Dep array.</text><text x="0" y="93" font-family="Virgil, Segoe UI Emoji" font-size="20px" fill="#000000" text-anchor="start" style="white-space: pre;" direction="ltr">Popovers would expand multiple places simultaneously.</text><text x="0" y="118" font-family="Virgil, Segoe UI Emoji" font-size="20px" fill="#000000" text-anchor="start" style="white-space: pre;" direction="ltr"></text><text x="0" y="143" font-family="Virgil, Segoe UI Emoji" font-size="20px" fill="#000000" text-anchor="start" style="white-space: pre;" direction="ltr">Instantiate at Outlet:</text><text x="0" y="168" font-family="Virgil, Segoe UI Emoji" font-size="20px" fill="#000000" text-anchor="start" style="white-space: pre;" direction="ltr">Recives a re-usable component. And not an instance</text><text x="0" y="193" font-family="Virgil, Segoe UI Emoji" font-size="20px" fill="#000000" text-anchor="start" style="white-space: pre;" direction="ltr">Becomes a dynamic component store.</text></g><g stroke-linecap="round"><g transform="translate(1560.6522791330374 544.4947223251067) rotate(0 1.2586660144500001 -133.5023693531766)"><path d="M0.72 0.1 C0.94 -44.44, 0.6 -222.86, 0.49 -267.11 M-0.36 -0.89 C0.34 -45.31, 2.41 -221.62, 2.88 -266.03" stroke="#000000" stroke-width="1" fill="none"></path></g><g transform="translate(1560.6522791330374 544.4947223251067) rotate(0 1.2586660144500001 -133.5023693531766)"><path d="M12.99 -238.75 C9.06 -245.87, 9.6 -252.24, 2.03 -266.89 M13.27 -238.2 C11.71 -244.65, 8.69 -250.33, 2.65 -266.75" stroke="#000000" stroke-width="1" fill="none"></path></g><g transform="translate(1560.6522791330374 544.4947223251067) rotate(0 1.2586660144500001 -133.5023693531766)"><path d="M-7.53 -238.98 C-6.76 -246.17, -1.52 -252.49, 2.03 -266.89 M-7.25 -238.43 C-4.43 -244.66, -3.06 -250.28, 2.65 -266.75" stroke="#000000" stroke-width="1" fill="none"></path></g></g><mask></mask><g stroke-linecap="round" transform="translate(1411.315704394892 182.86574302342552) rotate(0 202.65375916587072 47.75174784942932)"><path d="M23.88 0 M23.88 0 C120.74 0.81, 219.64 0.11, 381.43 0 M23.88 0 C149.19 0.32, 275.66 1.12, 381.43 0 M381.43 0 C397.07 -0.31, 404.55 6.76, 405.31 23.88 M381.43 0 C395.89 -1.45, 406.2 8.29, 405.31 23.88 M405.31 23.88 C405.79 35.3, 404.99 46.18, 405.31 71.63 M405.31 23.88 C405.83 33.68, 405.06 44.16, 405.31 71.63 M405.31 71.63 C403.61 88.43, 397.61 93.81, 381.43 95.5 M405.31 71.63 C404.9 86.9, 398.23 94.1, 381.43 95.5 M381.43 95.5 C292.32 95.18, 203.3 96.94, 23.88 95.5 M381.43 95.5 C309.34 93.76, 236.58 93.74, 23.88 95.5 M23.88 95.5 C7.26 95.85, -0.18 86.9, 0 71.63 M23.88 95.5 C7.07 93.33, -0.3 87.15, 0 71.63 M0 71.63 C-1.57 52.53, -0.34 35.49, 0 23.88 M0 71.63 C-1.35 58.5, 0.45 43.68, 0 23.88 M0 23.88 C-1.24 6.01, 6.18 -0.61, 23.88 0 M0 23.88 C-2.22 6.35, 8.71 0.13, 23.88 0" stroke="#000000" stroke-width="1" fill="none"></path></g><g transform="translate(1431.115209600753 198.32395533654784) rotate(0 187.5 25)"><text x="0" y="18" font-family="Virgil, Segoe UI Emoji" font-size="20px" fill="#000000" text-anchor="start" style="white-space: pre;" direction="ltr">Better to solve with nested keyStore</text><text x="0" y="43" font-family="Virgil, Segoe UI Emoji" font-size="20px" fill="#000000" text-anchor="start" style="white-space: pre;" direction="ltr">Potential infinite render-cycle?</text></g><g stroke-linecap="round"><g transform="translate(1390.0959144774417 763.0919984654616) rotate(0 -35.28372562373863 109.61949366474519)"><path d="M1.08 -1.04 C-10.65 35.83, -59.04 183.52, -71.12 220.28 M0.19 1.03 C-11.56 37.61, -59.63 181.76, -71.65 218.35" stroke="#000000" stroke-width="1" fill="none"></path></g><g transform="translate(1390.0959144774417 763.0919984654616) rotate(0 -35.28372562373863 109.61949366474519)"><path d="M-74.25 189.71 C-71.94 196.27, -73.05 203.85, -72.69 217.52 M-72.27 187.57 C-71.93 198.52, -72.36 206.81, -71.56 219.23" stroke="#000000" stroke-width="1" fill="none"></path></g><g transform="translate(1390.0959144774417 763.0919984654616) rotate(0 -35.28372562373863 109.61949366474519)"><path d="M-54.77 196.16 C-57 201.37, -62.71 207.43, -72.69 217.52 M-52.79 194.02 C-58.74 202.9, -65.41 209.12, -71.56 219.23" stroke="#000000" stroke-width="1" fill="none"></path></g></g><mask></mask><g stroke-linecap="round" transform="translate(1213.3206523362826 988.822072579647) rotate(0 193.9186833397556 80.36269760025905)"><path d="M32 0 M32 0 C145.01 0.18, 254.15 0.27, 355.84 0 M32 0 C120.5 0.7, 208.42 0.69, 355.84 0 M355.84 0 C379.09 1.11, 386.75 11.83, 387.84 32 M355.84 0 C375.85 -0.62, 388.59 12.95, 387.84 32 M387.84 32 C386.47 57.47, 387.31 81.58, 387.84 128.73 M387.84 32 C388.7 55.54, 388.38 76.57, 387.84 128.73 M387.84 128.73 C389.13 150.23, 377.99 162.67, 355.84 160.73 M387.84 128.73 C389.5 152.34, 379.04 159.8, 355.84 160.73 M355.84 160.73 C287.97 161.84, 217.63 159.93, 32 160.73 M355.84 160.73 C227.94 160.22, 100.07 159.04, 32 160.73 M32 160.73 C12.05 160.89, 0.88 150.96, 0 128.73 M32 160.73 C12.47 158.59, -0.43 150.68, 0 128.73 M0 128.73 C0.1 109.35, 0.31 85.73, 0 32 M0 128.73 C0.46 99.45, 1.69 72.56, 0 32 M0 32 C1.24 9.81, 12.39 -0.77, 32 0 M0 32 C-0.61 9.8, 11.33 0.42, 32 0" stroke="#000000" stroke-width="1" fill="none"></path></g><g transform="translate(1235.4495110957744 1006.6096384463999) rotate(0 165.5 62.5)"><text x="0" y="18" font-family="Virgil, Segoe UI Emoji" font-size="20px" fill="#000000" text-anchor="start" style="white-space: pre;" direction="ltr">Ejecting previous subscriber would</text><text x="0" y="43" font-family="Virgil, Segoe UI Emoji" font-size="20px" fill="#000000" text-anchor="start" style="white-space: pre;" direction="ltr">allow for overwriting, making it</text><text x="0" y="68" font-family="Virgil, Segoe UI Emoji" font-size="20px" fill="#000000" text-anchor="start" style="white-space: pre;" direction="ltr">more dynamic</text><text x="0" y="93" font-family="Virgil, Segoe UI Emoji" font-size="20px" fill="#000000" text-anchor="start" style="white-space: pre;" direction="ltr">Two useInlet on same key would </text><text x="0" y="118" font-family="Virgil, Segoe UI Emoji" font-size="20px" fill="#000000" text-anchor="start" style="white-space: pre;" direction="ltr">generate issues</text></g><g stroke-linecap="round" transform="translate(5720.365979747945 13.591823014191164) rotate(0 182.59696443268285 214.81995815609733)"><path d="M228.75 53.75 M228.75 53.75 C261.69 89.06, 289.96 124.95, 319.44 161.25 M228.75 53.75 C262.94 96.03, 298.16 136.04, 319.44 161.25 M319.44 161.25 C364.14 214.25, 366.16 213.48, 319.44 268.75 M319.44 161.25 C365.24 216.75, 363.41 214.17, 319.44 268.75 M319.44 268.75 C298.12 289.59, 280.14 313.13, 228.75 375.89 M319.44 268.75 C287.82 305.76, 255.85 343.22, 228.75 375.89 M228.75 375.89 C184.8 429.44, 183.89 430.79, 137.25 375.89 M228.75 375.89 C181.73 428.17, 181.79 429.66, 137.25 375.89 M137.25 375.89 C106.4 341.12, 74.42 304.54, 45.75 268.75 M137.25 375.89 C110.48 346.33, 84.45 316.31, 45.75 268.75 M45.75 268.75 C1.82 214.27, -1.58 216.02, 45.75 161.25 M45.75 268.75 C-2.13 215.22, 1.39 214.66, 45.75 161.25 M45.75 161.25 C64.42 137.09, 87.31 110.18, 137.25 53.75 M45.75 161.25 C65.91 139.2, 84.85 116.71, 137.25 53.75 M137.25 53.75 C183.98 -1.87, 184.88 -0.09, 228.75 53.75 M137.25 53.75 C183.66 -2.26, 183.57 -0.4, 228.75 53.75" stroke="#000000" stroke-width="1" fill="none"></path></g><g stroke-linecap="round" transform="translate(5879.69078204705 346.56275815614197) rotate(0 182.59696443268285 214.81995815609733)"><path d="M228.75 53.75 M228.75 53.75 C259.35 90.25, 291.9 128.94, 319.44 161.25 M228.75 53.75 C263.12 93.46, 296.76 134.69, 319.44 161.25 M319.44 161.25 C366.9 216.66, 365.08 214.77, 319.44 268.75 M319.44 161.25 C364.54 215.19, 367.29 214.16, 319.44 268.75 M319.44 268.75 C300.16 292.78, 279.64 313.96, 228.75 375.89 M319.44 268.75 C283.02 309.94, 246.35 351.87, 228.75 375.89 M228.75 375.89 C181.04 429.78, 183.31 430.2, 137.25 375.89 M228.75 375.89 C183.33 429.77, 184.13 427.49, 137.25 375.89 M137.25 375.89 C99.27 334.43, 64.83 292.28, 45.75 268.75 M137.25 375.89 C110.53 345.78, 84.23 314.02, 45.75 268.75 M45.75 268.75 C-1.48 215.83, 0.38 214.75, 45.75 161.25 M45.75 268.75 C0.26 213.69, 0.92 216.41, 45.75 161.25 M45.75 161.25 C80.88 120.75, 117.98 77.04, 137.25 53.75 M45.75 161.25 C75.32 127.63, 104.28 94.76, 137.25 53.75 M137.25 53.75 C181.89 0.1, 184.42 -1.14, 228.75 53.75 M137.25 53.75 C183.21 -2.28, 185.15 -0.91, 228.75 53.75" stroke="#000000" stroke-width="1" fill="none"></path></g><g stroke-linecap="round" transform="translate(5694.69078204705 771.562758156142) rotate(0 182.59696443268285 214.81995815609733)"><path d="M228.75 53.75 M228.75 53.75 C259.52 92.77, 293.59 132.73, 319.44 161.25 M228.75 53.75 C252.71 82.42, 278.01 112.72, 319.44 161.25 M319.44 161.25 C366.86 214.89, 364.96 214.43, 319.44 268.75 M319.44 161.25 C365.38 217.1, 364.35 213.18, 319.44 268.75 M319.44 268.75 C287.82 306.15, 253.52 345.98, 228.75 375.89 M319.44 268.75 C297.5 292.85, 276.48 316.47, 228.75 375.89 M228.75 375.89 C183.14 429.95, 183.56 429.92, 137.25 375.89 M228.75 375.89 C183.13 430.77, 180.85 431.8, 137.25 375.89 M137.25 375.89 C110.38 342.96, 83.39 311.43, 45.75 268.75 M137.25 375.89 C114.9 348.39, 91.67 321.58, 45.75 268.75 M45.75 268.75 C0.83 215.38, -0.25 215.22, 45.75 161.25 M45.75 268.75 C-1.31 215.92, 1.41 217.14, 45.75 161.25 M45.75 161.25 C76.48 128.01, 103.98 93.78, 137.25 53.75 M45.75 161.25 C74.22 128.4, 103.36 93.91, 137.25 53.75 M137.25 53.75 C183.1 1.42, 181.86 0.19, 228.75 53.75 M137.25 53.75 C180.72 2.15, 182.09 0.82, 228.75 53.75" stroke="#000000" stroke-width="1" fill="none"></path></g><g stroke-linecap="round" transform="translate(6109.69078204705 766.562758156142) rotate(0 182.59696443268285 214.81995815609733)"><path d="M228.75 53.75 M228.75 53.75 C250.28 81.13, 274 106.28, 319.44 161.25 M228.75 53.75 C257.02 87.5, 286.08 121.71, 319.44 161.25 M319.44 161.25 C365.08 214.77, 364.63 215.16, 319.44 268.75 M319.44 161.25 C367.29 214.16, 363.37 216.17, 319.44 268.75 M319.44 268.75 C300.44 290.25, 283.86 312.25, 228.75 375.89 M319.44 268.75 C301.15 289.02, 282.32 311.56, 228.75 375.89 M228.75 375.89 C183.31 430.2, 183.28 429.75, 137.25 375.89 M228.75 375.89 C184.13 427.49, 185.16 429.54, 137.25 375.89 M137.25 375.89 C107.87 341.46, 77.94 304.6, 45.75 268.75 M137.25 375.89 C106.57 340.23, 75.21 304.27, 45.75 268.75 M45.75 268.75 C0.38 214.75, 0.22 213.86, 45.75 161.25 M45.75 268.75 C0.92 216.41, 2.14 215.38, 45.75 161.25 M45.75 161.25 C73.48 129.12, 100.17 97.46, 137.25 53.75 M45.75 161.25 C68.49 135.6, 89.72 108.17, 137.25 53.75 M137.25 53.75 C184.42 -1.14, 183.19 -1.98, 228.75 53.75 M137.25 53.75 C185.15 -0.91, 183.82 1.02, 228.75 53.75" stroke="#000000" stroke-width="1" fill="none"></path></g><g stroke-linecap="round" transform="translate(5489.69078204705 346.56275815614197) rotate(0 182.59696443268285 214.81995815609733)"><path d="M228.75 53.75 M228.75 53.75 C250.21 80.68, 270.47 104.69, 319.44 161.25 M228.75 53.75 C258.73 91.56, 290.77 127.43, 319.44 161.25 M319.44 161.25 C364.96 214.43, 365.36 216.82, 319.44 268.75 M319.44 161.25 C364.35 213.18, 366.37 212.87, 319.44 268.75 M319.44 268.75 C290.75 303.71, 262.45 332.98, 228.75 375.89 M319.44 268.75 C287.99 302.98, 258.87 339.68, 228.75 375.89 M228.75 375.89 C183.56 429.92, 183.11 430.62, 137.25 375.89 M228.75 375.89 C180.85 431.8, 182.9 430.3, 137.25 375.89 M137.25 375.89 C119.09 353.92, 98.99 333.26, 45.75 268.75 M137.25 375.89 C115.46 350.04, 94.7 326.24, 45.75 268.75 M45.75 268.75 C-0.25 215.22, -1.14 215.8, 45.75 161.25 M45.75 268.75 C1.41 217.14, 0.38 214.86, 45.75 161.25 M45.75 161.25 C69.56 132.55, 93.98 102.42, 137.25 53.75 M45.75 161.25 C81.5 119.08, 115.44 79.57, 137.25 53.75 M137.25 53.75 C181.86 0.19, 181.02 1.87, 228.75 53.75 M137.25 53.75 C182.09 0.82, 184.02 0.25, 228.75 53.75" stroke="#000000" stroke-width="1" fill="none"></path></g><g stroke-linecap="round" transform="translate(5306.609077023473 771.8778721692313) rotate(0 182.59696443268285 214.81995815609736)"><path d="M228.75 53.75 M228.75 53.75 C253.43 82.66, 280.58 115.99, 319.44 161.25 M228.75 53.75 C249.92 81.41, 273.29 108.15, 319.44 161.25 M319.44 161.25 C363.34 216.42, 366.68 215.56, 319.44 268.75 M319.44 161.25 C366.25 212.95, 363.39 214.97, 319.44 268.75 M319.44 268.75 C285.04 306.61, 252.11 350.1, 228.75 375.89 M319.44 268.75 C283.95 310.13, 247.92 352.1, 228.75 375.89 M228.75 375.89 C184.83 430.84, 184.52 431.28, 137.25 375.89 M228.75 375.89 C181.44 430.76, 183.69 431.79, 137.25 375.89 M137.25 375.89 C117.09 347.96, 92 323.93, 45.75 268.75 M137.25 375.89 C112.8 348.25, 91.03 321.16, 45.75 268.75 M45.75 268.75 C-0.91 213.27, -1.2 215.2, 45.75 161.25 M45.75 268.75 C-0.18 216.18, 1.42 216.44, 45.75 161.25 M45.75 161.25 C68.98 135.71, 89.85 111.81, 137.25 53.75 M45.75 161.25 C74.97 125.85, 107.12 89.53, 137.25 53.75 M137.25 53.75 C182.89 -1.17, 184.73 0.73, 228.75 53.75 M137.25 53.75 C184.63 0.06, 185.04 2.28, 228.75 53.75" stroke="#000000" stroke-width="1" fill="none"></path></g><g stroke-linecap="round"><g transform="translate(5974.644252022425 221.95403870868364) rotate(0 258.7275442807854 -16.600783120946545)"><path d="M0.22 0.78 C86.23 -4.83, 430.16 -28.13, 516.24 -33.98 M-1.12 0.14 C85.26 -5.29, 432.43 -27.2, 518.57 -32.82" stroke="#000000" stroke-width="1" fill="none"></path></g><g transform="translate(5974.644252022425 221.95403870868364) rotate(0 258.7275442807854 -16.600783120946545)"><path d="M492.39 -21.98 C498.68 -25.13, 506.84 -29.29, 516.75 -34.27 M491.85 -20.1 C498.73 -23.48, 505.45 -27.2, 518.27 -32.83" stroke="#000000" stroke-width="1" fill="none"></path></g><g transform="translate(5974.644252022425 221.95403870868364) rotate(0 258.7275442807854 -16.600783120946545)"><path d="M491.08 -42.45 C497.72 -39.1, 506.31 -36.75, 516.75 -34.27 M490.54 -40.58 C497.73 -38.59, 504.79 -36.93, 518.27 -32.83" stroke="#000000" stroke-width="1" fill="none"></path></g></g><mask></mask><g transform="translate(6495.8780948944395 117.25107508726802) rotate(0 188.5 67.5)"><text x="0" y="32" font-family="Virgil, Segoe UI Emoji" font-size="36px" fill="#000000" text-anchor="start" style="white-space: pre;" direction="ltr">&lt;ComponentProvider&gt;</text><text x="0" y="77" font-family="Virgil, Segoe UI Emoji" font-size="36px" fill="#000000" text-anchor="start" style="white-space: pre;" direction="ltr">{children}</text><text x="0" y="122" font-family="Virgil, Segoe UI Emoji" font-size="36px" fill="#000000" text-anchor="start" style="white-space: pre;" direction="ltr">&lt;/ComponentProvider&gt;</text></g><g stroke-linecap="round"><g transform="translate(5429.946914968065 967.1104699142516) rotate(0 -285.0962502405582 -18.617087753354213)"><path d="M0.4 -0.57 C-94.51 -7.12, -475.59 -32.7, -570.59 -38.98 M-0.85 1.74 C-95.28 -4.69, -473.41 -31.43, -568.32 -37.87" stroke="#000000" stroke-width="1" fill="none"></path></g><g transform="translate(5429.946914968065 967.1104699142516) rotate(0 -285.0962502405582 -18.617087753354213)"><path d="M-540.44 -47.56 C-546.7 -44.16, -551.3 -43.77, -568.77 -37.43 M-540.31 -46.74 C-547.46 -42.43, -557.96 -40.23, -568.64 -38.17" stroke="#000000" stroke-width="1" fill="none"></path></g><g transform="translate(5429.946914968065 967.1104699142516) rotate(0 -285.0962502405582 -18.617087753354213)"><path d="M-541.86 -27.09 C-547.88 -27.85, -552.19 -31.62, -568.77 -37.43 M-541.73 -26.27 C-548.46 -28.23, -558.52 -32.3, -568.64 -38.17" stroke="#000000" stroke-width="1" fill="none"></path></g></g><mask></mask><g transform="translate(4669.0595980915805 878.6823755145033) rotate(0 265.5 22.5)"><text x="0" y="32" font-family="Virgil, Segoe UI Emoji" font-size="36px" fill="#000000" text-anchor="start" style="white-space: pre;" direction="ltr">useInlet("foo",&lt;div&gt;Test&lt;/div&gt;</text></g><g transform="translate(5204.250851928463 886.5916058667724) rotate(0 6.5 22.5)"><text x="0" y="32" font-family="Virgil, Segoe UI Emoji" font-size="36px" fill="#000000" text-anchor="start" style="white-space: pre;" direction="ltr">)</text></g><g stroke-linecap="round"><g transform="translate(6305.803820457299 973.2693025000028) rotate(0 286.17955734501766 -11.438596836499158)"><path d="M0.14 0.07 C95.88 -3.73, 478.17 -19.36, 573.61 -22.95 M-1.25 -0.94 C94.39 -4.61, 476.45 -18.19, 572.52 -21.96" stroke="#000000" stroke-width="1" fill="none"></path></g><g transform="translate(6305.803820457299 973.2693025000028) rotate(0 286.17955734501766 -11.438596836499158)"><path d="M544.85 -11.11 C549.32 -15.05, 558.11 -15.8, 570.6 -21.79 M544.29 -10.46 C554.33 -13.35, 563.06 -18.87, 571.95 -22.22" stroke="#000000" stroke-width="1" fill="none"></path></g><g transform="translate(6305.803820457299 973.2693025000028) rotate(0 286.17955734501766 -11.438596836499158)"><path d="M544.09 -31.62 C548.71 -30.9, 557.67 -26.99, 570.6 -21.79 M543.53 -30.97 C553.87 -27.15, 562.85 -25.97, 571.95 -22.22" stroke="#000000" stroke-width="1" fill="none"></path></g></g><mask></mask><g transform="translate(6943.339098378653 911.7470670968919) rotate(0 299 67.5)"><text x="0" y="32" font-family="Virgil, Segoe UI Emoji" font-size="36px" fill="#000000" text-anchor="start" style="white-space: pre;" direction="ltr">Scenario 2, separation of concern</text><text x="0" y="77" font-family="Virgil, Segoe UI Emoji" font-size="36px" fill="#000000" text-anchor="start" style="white-space: pre;" direction="ltr"></text><text x="0" y="122" font-family="Virgil, Segoe UI Emoji" font-size="36px" fill="#000000" text-anchor="start" style="white-space: pre;" direction="ltr">&lt;Outlet key="foo" /&gt;</text></g><g transform="translate(4966.459567874533 10) rotate(0 387 135)"><text x="0" y="32" font-family="Virgil, Segoe UI Emoji" font-size="36px" fill="#000000" text-anchor="start" style="white-space: pre;" direction="ltr">Scenario 1, </text><text x="0" y="77" font-family="Virgil, Segoe UI Emoji" font-size="36px" fill="#000000" text-anchor="start" style="white-space: pre;" direction="ltr">Render up in dom tree without lifting state</text><text x="0" y="122" font-family="Virgil, Segoe UI Emoji" font-size="36px" fill="#000000" text-anchor="start" style="white-space: pre;" direction="ltr"></text><text x="0" y="167" font-family="Virgil, Segoe UI Emoji" font-size="36px" fill="#000000" text-anchor="start" style="white-space: pre;" direction="ltr"></text><text x="0" y="212" font-family="Virgil, Segoe UI Emoji" font-size="36px" fill="#000000" text-anchor="start" style="white-space: pre;" direction="ltr"></text><text x="0" y="257" font-family="Virgil, Segoe UI Emoji" font-size="36px" fill="#000000" text-anchor="start" style="white-space: pre;" direction="ltr">&lt;Outlet key="foo" /&gt;</text></g><g stroke-linecap="round"><g transform="translate(5808.937231415761 240.5379545743072) rotate(0 -185.05553494379456 -33.540318060340454)"><path d="M0.95 1.14 C-61.08 -10, -309.16 -55.05, -371.06 -66.53 M-0.01 0.69 C-61.78 -10.81, -306.98 -56.99, -368.88 -68.22" stroke="#000000" stroke-width="1" fill="none"></path></g><g transform="translate(5808.937231415761 240.5379545743072) rotate(0 -185.05553494379456 -33.540318060340454)"><path d="M-337.4 -74.86 C-349.55 -71.68, -363.25 -68.31, -370.57 -69.31 M-338.33 -72.69 C-350.02 -72.3, -359.45 -70.11, -367.96 -67.58" stroke="#000000" stroke-width="1" fill="none"></path></g><g transform="translate(5808.937231415761 240.5379545743072) rotate(0 -185.05553494379456 -33.540318060340454)"><path d="M-341.14 -54.68 C-351.86 -59.48, -364.09 -64.07, -370.57 -69.31 M-342.07 -52.52 C-352.48 -58.88, -360.66 -63.44, -367.96 -67.58" stroke="#000000" stroke-width="1" fill="none"></path></g></g><mask></mask><g transform="translate(5843.2992366141525 141.47660614842778) rotate(0 42 80)"><text x="0" y="112" font-family="Virgil, Segoe UI Emoji" font-size="125.88664210968001px" fill="#000000" text-anchor="start" style="white-space: pre;" direction="ltr">A</text></g><g transform="translate(5448.526821943261 902.172682110416) rotate(0 49 84.5)"><text x="0" y="118" font-family="Virgil, Segoe UI Emoji" font-size="133.17474822668134px" fill="#000000" text-anchor="start" style="white-space: pre;" direction="ltr">B</text></g><g transform="translate(6247.181783931297 873.3239287306201) rotate(0 51.5 100.5)"><text x="0" y="141" font-family="Virgil, Segoe UI Emoji" font-size="158.98679072439276px" fill="#000000" text-anchor="start" style="white-space: pre;" direction="ltr">C</text></g><g stroke-linecap="round" transform="translate(4996.493728981572 353.97583546659797) rotate(0 433.0524400425543 475.6477620139528)"><path d="M32 0 M32 0 C337.29 -1.44, 643.79 -0.52, 834.1 0 M32 0 C231.24 -0.8, 430.39 -0.52, 834.1 0 M834.1 0 C857.06 -0.95, 865.62 10.01, 866.1 32 M834.1 0 C854.98 -2.04, 868.05 10.52, 866.1 32 M866.1 32 C866.11 333.05, 865.96 635.41, 866.1 919.3 M866.1 32 C869.77 274.36, 869.78 517.03, 866.1 919.3 M866.1 919.3 C864.73 939.61, 854.1 951.34, 834.1 951.3 M866.1 919.3 C867.37 939.12, 855.12 951.98, 834.1 951.3 M834.1 951.3 C589.51 949.65, 345.85 949.58, 32 951.3 M834.1 951.3 C546.27 953.9, 259.32 954.48, 32 951.3 M32 951.3 C9.62 949.46, 1.18 939.61, 0 919.3 M32 951.3 C11.52 949.91, 1.85 940.14, 0 919.3 M0 919.3 C-2.58 738.4, -2.24 558.64, 0 32 M0 919.3 C-1.93 736.88, -1.81 555.38, 0 32 M0 32 C0.93 8.83, 10.55 0.92, 32 0 M0 32 C2.22 10.04, 9.96 0.95, 32 0" stroke="#000000" stroke-width="1" fill="none"></path></g><g stroke-linecap="round"><g transform="translate(5969.875716253907 344.5102083618427) rotate(0 5.46618999543216 46.37837646469025)"><path d="M-0.07 -0.61 C1.64 14.82, 8.47 77.72, 10.22 93.37 M-1.56 1.69 C0.53 16.67, 10.69 75.9, 12.49 91.39" stroke="#000000" stroke-width="1" fill="none"></path></g><g transform="translate(5969.875716253907 344.5102083618427) rotate(0 5.46618999543216 46.37837646469025)"><path d="M-2.77 63.62 C3.12 71.73, 7.17 80.67, 14.02 92.42 M-1.54 64.3 C2.38 75.41, 8.03 85.73, 12.57 91.88" stroke="#000000" stroke-width="1" fill="none"></path></g><g transform="translate(5969.875716253907 344.5102083618427) rotate(0 5.46618999543216 46.37837646469025)"><path d="M17.53 60.63 C17.42 69.62, 15.44 79.44, 14.02 92.42 M18.76 61.32 C15.02 73.5, 13.04 84.95, 12.57 91.88" stroke="#000000" stroke-width="1" fill="none"></path></g></g><mask></mask><g stroke-linecap="round"><g transform="translate(5804.22724192069 335.0445812570874) rotate(0 -27.558726421676056 47.08854927249735)"><path d="M-0.84 1.02 C-9.83 16.54, -45.9 78.21, -55.13 93.66 M0.91 0.52 C-8.12 15.63, -46.91 76.65, -56.03 91.85" stroke="#000000" stroke-width="1" fill="none"></path></g><g transform="translate(5804.22724192069 335.0445812570874) rotate(0 -27.558726421676056 47.08854927249735)"><path d="M-48.19 62.62 C-50.02 66.68, -51.17 74.13, -57.67 93.71 M-49.57 61.67 C-51.41 72.56, -53.31 83.16, -56.7 92.77" stroke="#000000" stroke-width="1" fill="none"></path></g><g transform="translate(5804.22724192069 335.0445812570874) rotate(0 -27.558726421676056 47.08854927249735)"><path d="M-30.75 73.44 C-36.13 75.2, -40.79 80.48, -57.67 93.71 M-32.13 72.49 C-40.19 79.62, -48.27 86.38, -56.7 92.77" stroke="#000000" stroke-width="1" fill="none"></path></g></g><mask></mask><g stroke-linecap="round"><g transform="translate(6140.257004139502 672.651947993359) rotate(0 33.089085384107875 111.90452862488512)"><path d="M-1.17 0.86 C9.59 38, 53.85 186.69, 65.19 223.55 M0.42 0.26 C11.47 37.04, 56.34 184.86, 67.35 222" stroke="#000000" stroke-width="1" fill="none"></path></g><g transform="translate(6140.257004139502 672.651947993359) rotate(0 33.089085384107875 111.90452862488512)"><path d="M50.84 196.18 C57.77 207.74, 61.61 216.6, 65.78 222.67 M50.32 198.4 C54.99 206.68, 61.82 215.49, 66.68 222.93" stroke="#000000" stroke-width="1" fill="none"></path></g><g transform="translate(6140.257004139502 672.651947993359) rotate(0 33.089085384107875 111.90452862488512)"><path d="M70.49 190.28 C70.47 203.74, 67.32 214.7, 65.78 222.67 M69.97 192.49 C67.56 202.79, 67.29 213.73, 66.68 222.93" stroke="#000000" stroke-width="1" fill="none"></path></g></g><mask></mask><g stroke-linecap="round"><g transform="translate(5969.875716253907 660.0311118536854) rotate(0 -13.984072838673 76.98690118608424)"><path d="M1.11 0.68 C-3.75 26.25, -23.97 127.27, -29.08 152.65 M0.23 -0.02 C-4.23 25.8, -22.14 128.28, -26.72 153.99" stroke="#000000" stroke-width="1" fill="none"></path></g><g transform="translate(5969.875716253907 660.0311118536854) rotate(0 -13.984072838673 76.98690118608424)"><path d="M-30.81 123.31 C-31.17 131.48, -29.1 143.74, -27.18 155.01 M-31.79 124.92 C-30.42 134.96, -27.55 146.88, -26.36 153.92" stroke="#000000" stroke-width="1" fill="none"></path></g><g transform="translate(5969.875716253907 660.0311118536854) rotate(0 -13.984072838673 76.98690118608424)"><path d="M-10.6 126.87 C-17.1 134.15, -21.19 145.31, -27.18 155.01 M-11.58 128.49 C-17.57 137.12, -22.03 147.75, -26.36 153.92" stroke="#000000" stroke-width="1" fill="none"></path></g></g><mask></mask><g stroke-linecap="round"><g transform="translate(5728.502225082648 694.7384112377879) rotate(0 32.794515336873246 82.83148601738087)"><path d="M-0.27 0.41 C10.61 28.22, 55.05 138.53, 65.86 166.09 M1.79 -0.42 C12.56 27.09, 55.2 136.27, 65.53 164.19" stroke="#000000" stroke-width="1" fill="none"></path></g><g transform="translate(5728.502225082648 694.7384112377879) rotate(0 32.794515336873246 82.83148601738087)"><path d="M46.57 143.48 C53.3 149.3, 59.55 157.93, 66.1 164.77 M45.3 142.42 C51 148.76, 56.28 154.3, 65.39 163.81" stroke="#000000" stroke-width="1" fill="none"></path></g><g transform="translate(5728.502225082648 694.7384112377879) rotate(0 32.794515336873246 82.83148601738087)"><path d="M65.74 136.16 C65.76 144.48, 65.34 155.66, 66.1 164.77 M64.47 135.1 C64.67 143.67, 64.42 151.31, 65.39 163.81" stroke="#000000" stroke-width="1" fill="none"></path></g></g><mask></mask><g stroke-linecap="round"><g transform="translate(5618.069908860502 727.8681061044315) rotate(0 -26.136085325656495 67.02926144242888)"><path d="M-0.12 0.84 C-8.78 22.87, -42.68 110.29, -51.5 132.36 M-1.63 0.24 C-10.45 22.44, -43.99 111.97, -52.16 133.82" stroke="#000000" stroke-width="1" fill="none"></path></g><g transform="translate(5618.069908860502 727.8681061044315) rotate(0 -26.136085325656495 67.02926144242888)"><path d="M-50.47 104.75 C-52.18 112.39, -50.75 123.39, -51.98 132.38 M-52.19 104.75 C-51.19 113.98, -52.31 124.41, -51.95 134.54" stroke="#000000" stroke-width="1" fill="none"></path></g><g transform="translate(5618.069908860502 727.8681061044315) rotate(0 -26.136085325656495 67.02926144242888)"><path d="M-31.25 111.95 C-39.48 117.13, -44.57 125.7, -51.98 132.38 M-32.97 111.94 C-38.47 118.83, -46.07 126.85, -51.95 134.54" stroke="#000000" stroke-width="1" fill="none"></path></g></g><mask></mask><g stroke-linecap="round"><g transform="translate(1366.0254325488545 702.9544298970729) rotate(0 -311.2843532530652 159.55268123414595)"><path d="M-0.5 0.28 C-104.46 53.16, -520.21 265.03, -624.01 318.23 M1.44 -0.62 C-102.13 52.38, -517.5 266.66, -621.77 319.72" stroke="#000000" stroke-width="1" fill="none"></path></g><g transform="translate(1366.0254325488545 702.9544298970729) rotate(0 -311.2843532530652 159.55268123414595)"><path d="M-600.9 296.23 C-607.05 303.47, -610.63 309.47, -621.05 318.15 M-601.71 297.61 C-609.89 306.77, -616.93 314.29, -621.28 319.27" stroke="#000000" stroke-width="1" fill="none"></path></g><g transform="translate(1366.0254325488545 702.9544298970729) rotate(0 -311.2843532530652 159.55268123414595)"><path d="M-591.53 314.49 C-600.44 316.59, -606.64 317.49, -621.05 318.15 M-592.35 315.87 C-604.09 317.96, -614.76 318.38, -621.28 319.27" stroke="#000000" stroke-width="1" fill="none"></path></g></g><mask></mask><g stroke-linecap="round" transform="translate(335.7261411009996 1022.6017811593299) rotate(0 203.26850375357395 65.95733160145465)"><path d="M32 0 M32 0 C136.47 -2.54, 242.13 -1.8, 374.54 0 M32 0 C163.91 -0.35, 295.63 0, 374.54 0 M374.54 0 C395.21 -0.58, 408.23 12.09, 406.54 32 M374.54 0 C393.75 -0.29, 408.52 9.95, 406.54 32 M406.54 32 C406.89 58.86, 405.02 85.87, 406.54 99.91 M406.54 32 C405.96 48.47, 407.22 64.15, 406.54 99.91 M406.54 99.91 C407.67 122.72, 397.72 131.17, 374.54 131.91 M406.54 99.91 C408.17 121.41, 394.16 132.12, 374.54 131.91 M374.54 131.91 C303.17 132.26, 229.85 132.4, 32 131.91 M374.54 131.91 C254.31 134.01, 132.78 133.84, 32 131.91 M32 131.91 C11.04 132.76, 0.61 121.96, 0 99.91 M32 131.91 C8.85 131.23, -1.32 119.32, 0 99.91 M0 99.91 C-0.43 76.83, -1.27 50.65, 0 32 M0 99.91 C0.09 82.97, 0.16 64.51, 0 32 M0 32 C0.07 10.22, 9.24 -0.8, 32 0 M0 32 C1.04 12.71, 12.01 -1.93, 32 0" stroke="#000000" stroke-width="1" fill="none"></path></g><g transform="translate(369.3044190071947 1042.191695901492) rotate(0 158.5 37.5)"><text x="0" y="18" font-family="Virgil, Segoe UI Emoji" font-size="20px" fill="#000000" text-anchor="start" style="white-space: pre;" direction="ltr">Support children?</text><text x="0" y="43" font-family="Virgil, Segoe UI Emoji" font-size="20px" fill="#000000" text-anchor="start" style="white-space: pre;" direction="ltr">useInlet callback with </text><text x="0" y="68" font-family="Virgil, Segoe UI Emoji" font-size="20px" fill="#000000" text-anchor="start" style="white-space: pre;" direction="ltr">children and dep array as args?</text></g><g stroke-linecap="round"><g transform="translate(1717.2324320987414 559.7012357382117) rotate(0 274.50318480729044 -127.13834048031646)"><path d="M-0.39 0.98 C91.2 -41.39, 457.69 -210.86, 549.39 -253.52 M1.61 0.46 C93.07 -42.32, 457.23 -212.85, 548.52 -255.26" stroke="#000000" stroke-width="1" fill="none"></path></g><g transform="translate(1717.2324320987414 559.7012357382117) rotate(0 274.50318480729044 -127.13834048031646)"><path d="M528.96 -233.79 C534.5 -239.12, 538.22 -247.56, 546.55 -257.24 M527.15 -234.48 C532.41 -238.98, 537.82 -245.11, 549.19 -256.2" stroke="#000000" stroke-width="1" fill="none"></path></g><g transform="translate(1717.2324320987414 559.7012357382117) rotate(0 274.50318480729044 -127.13834048031646)"><path d="M520.28 -252.39 C528.44 -252.32, 534.66 -255.41, 546.55 -257.24 M518.48 -253.08 C525.77 -252.95, 533.35 -254.44, 549.19 -256.2" stroke="#000000" stroke-width="1" fill="none"></path></g></g><mask></mask><g stroke-linecap="round" transform="translate(2255.684102808799 163.95724612948362) rotate(0 208.06540059731606 74.35190107800346)"><path d="M32 0 M32 0 C168.86 0.45, 304.48 -1.15, 384.13 0 M32 0 C104.3 2.47, 175.59 1.74, 384.13 0 M384.13 0 C404.23 -0.62, 415.63 11.32, 416.13 32 M384.13 0 C405.41 -0.4, 415.84 11.18, 416.13 32 M416.13 32 C415.47 64.68, 416.48 97.68, 416.13 116.7 M416.13 32 C415.9 61.72, 415.78 92.57, 416.13 116.7 M416.13 116.7 C415.94 136.14, 405.72 147.1, 384.13 148.7 M416.13 116.7 C415.51 138.38, 406.32 149.03, 384.13 148.7 M384.13 148.7 C276.75 147.72, 167.99 148.73, 32 148.7 M384.13 148.7 C290.79 148.74, 196.82 149.73, 32 148.7 M32 148.7 C12.47 149.41, -0.08 138.52, 0 116.7 M32 148.7 C9.31 147.35, 2.26 137.04, 0 116.7 M0 116.7 C2.14 88.94, 0.92 57.86, 0 32 M0 116.7 C0.42 97.45, -0.6 80.47, 0 32 M0 32 C-1.28 11.39, 10.04 -1.1, 32 0 M0 32 C0.73 10.45, 11.3 -1.86, 32 0" stroke="#000000" stroke-width="1" fill="none"></path></g><g transform="translate(2277.2701386056383 178.94173034819443) rotate(0 180.5 50)"><text x="0" y="18" font-family="Virgil, Segoe UI Emoji" font-size="20px" fill="#000000" text-anchor="start" style="white-space: pre;" direction="ltr">Fallback naive, render fallback until </text><text x="0" y="43" font-family="Virgil, Segoe UI Emoji" font-size="20px" fill="#000000" text-anchor="start" style="white-space: pre;" direction="ltr">node is set.</text><text x="0" y="68" font-family="Virgil, Segoe UI Emoji" font-size="20px" fill="#000000" text-anchor="start" style="white-space: pre;" direction="ltr">Supsense allows for sanity check, </text><text x="0" y="93" font-family="Virgil, Segoe UI Emoji" font-size="20px" fill="#000000" text-anchor="start" style="white-space: pre;" direction="ltr">will component ever arrive?</text></g><g stroke-linecap="round"><g transform="translate(1375.4535319821125 586.0841683787936) rotate(0 -173.0800693985807 -179.6163329348276)"><path d="M-0.25 1.15 C-58.31 -58.72, -289.41 -300.09, -347.29 -360.38 M1.82 0.71 C-56.44 -58.92, -289.65 -299.1, -347.98 -359.17" stroke="#000000" stroke-width="1" fill="none"></path></g><g transform="translate(1375.4535319821125 586.0841683787936) rotate(0 -173.0800693985807 -179.6163329348276)"><path d="M-319.06 -345.28 C-332.32 -350.77, -343.09 -355.53, -346.74 -360.84 M-320.99 -345.9 C-328.8 -350.72, -337.29 -354.47, -347.29 -358.25" stroke="#000000" stroke-width="1" fill="none"></path></g><g transform="translate(1375.4535319821125 586.0841683787936) rotate(0 -173.0800693985807 -179.6163329348276)"><path d="M-333.78 -330.98 C-341.22 -341.97, -346.29 -352.26, -346.74 -360.84 M-335.71 -331.61 C-339.23 -340.73, -343.36 -348.72, -347.29 -358.25" stroke="#000000" stroke-width="1" fill="none"></path></g></g><mask></mask><g stroke-linecap="round" transform="translate(783.0367717799559 126.78129559048188) rotate(0 230.2510484996236 50.96702896476046)"><path d="M25.48 0 M25.48 0 C129.43 1.46, 234.87 1.18, 435.02 0 M25.48 0 C143.42 2.05, 260.61 1.97, 435.02 0 M435.02 0 C453.77 1.85, 458.81 8.43, 460.5 25.48 M435.02 0 C454.09 -0.76, 461.07 10.17, 460.5 25.48 M460.5 25.48 C461.69 37.25, 458.57 50.09, 460.5 76.45 M460.5 25.48 C460.89 43.94, 459.71 63.93, 460.5 76.45 M460.5 76.45 C458.73 93.59, 450.4 100.09, 435.02 101.93 M460.5 76.45 C458.24 93.97, 453.82 100.36, 435.02 101.93 M435.02 101.93 C322.97 100.3, 211.5 101.32, 25.48 101.93 M435.02 101.93 C336.38 100.49, 236.97 99.78, 25.48 101.93 M25.48 101.93 C9.43 99.96, -0.19 92.01, 0 76.45 M25.48 101.93 C8.13 102.92, 1.99 92.4, 0 76.45 M0 76.45 C2.04 57.81, 2.2 41.16, 0 25.48 M0 76.45 C-0.51 63.57, -0.37 49.18, 0 25.48 M0 25.48 C-1.1 9.51, 7.84 0.1, 25.48 0 M0 25.48 C-0.62 8.11, 8.22 -1.13, 25.48 0" stroke="#000000" stroke-width="1" fill="none"></path></g><g transform="translate(803.4235833658602 138.16810717638606) rotate(0 148 25)"><text x="0" y="18" font-family="Virgil, Segoe UI Emoji" font-size="20px" fill="#000000" text-anchor="start" style="white-space: pre;" direction="ltr">Referential equality impossible</text><text x="0" y="43" font-family="Virgil, Segoe UI Emoji" font-size="20px" fill="#000000" text-anchor="start" style="white-space: pre;" direction="ltr">Dep array is a must</text></g><g stroke-linecap="round"><g transform="translate(1373.0550835602417 564.4981325819539) rotate(0 -460.7978332502155 -140.52077942406686)"><path d="M-0.41 0.67 C-154.34 -46.2, -769.4 -234.53, -923.17 -281.71 M1.58 -0.02 C-152.02 -46.64, -767.28 -233.22, -920.97 -280.12" stroke="#000000" stroke-width="1" fill="none"></path></g><g transform="translate(1373.0550835602417 564.4981325819539) rotate(0 -460.7978332502155 -140.52077942406686)"><path d="M-889.9 -283.35 C-900.87 -282.67, -912.06 -280.97, -921.44 -279.58 M-891.07 -280.85 C-901.97 -281.96, -914.66 -279.96, -919.99 -279.24" stroke="#000000" stroke-width="1" fill="none"></path></g><g transform="translate(1373.0550835602417 564.4981325819539) rotate(0 -460.7978332502155 -140.52077942406686)"><path d="M-895.87 -263.72 C-904.76 -269.59, -913.96 -274.46, -921.44 -279.58 M-897.04 -261.22 C-905.61 -270.1, -915.91 -275.94, -919.99 -279.24" stroke="#000000" stroke-width="1" fill="none"></path></g></g><mask></mask><g stroke-linecap="round" transform="translate(112.67043786698923 263.4928556371334) rotate(0 169.69022584737883 23.98448421871079)"><path d="M11.99 0 M11.99 0 C103.47 -1.36, 194.63 0.85, 327.39 0 M11.99 0 C99.94 0.53, 188.1 0.89, 327.39 0 M327.39 0 C336.86 1.46, 337.6 2.34, 339.38 11.99 M327.39 0 C334.59 -1.3, 340.05 2.58, 339.38 11.99 M339.38 11.99 C341.45 18.54, 340.38 22.86, 339.38 35.98 M339.38 11.99 C339.54 20.23, 339.95 26.9, 339.38 35.98 M339.38 35.98 C337.91 45.06, 336.89 49.81, 327.39 47.97 M339.38 35.98 C340.81 43.19, 337.41 47.35, 327.39 47.97 M327.39 47.97 C213.66 45.83, 102.05 47.68, 11.99 47.97 M327.39 47.97 C248.09 46.59, 168.15 45.71, 11.99 47.97 M11.99 47.97 C3.86 48.42, -1.18 43.02, 0 35.98 M11.99 47.97 C3.89 50.19, -0.08 45.93, 0 35.98 M0 35.98 C-0.08 26.84, -1.37 20.01, 0 11.99 M0 35.98 C0.41 28.65, 0.96 18.94, 0 11.99 M0 11.99 C-0.64 2.19, 3.77 -1.98, 11.99 0 M0 11.99 C0.99 2.84, 2.58 -1.37, 11.99 0" stroke="#000000" stroke-width="1" fill="none"></path></g><g transform="translate(130.65880103102222 267.68432195742434) rotate(0 149.5 12.5)"><text x="0" y="18" font-family="Virgil, Segoe UI Emoji" font-size="20px" fill="#000000" text-anchor="start" style="white-space: pre;" direction="ltr">Currying can only be done once</text></g></svg>